<mxfile host="app.diagrams.net" modified="2024-03-06T02:38:09.693Z" agent="Mozilla/5.0 (Windows NT 10.0; Win64; x64) AppleWebKit/537.36 (KHTML, like Gecko) Chrome/121.0.0.0 Safari/537.36 OPR/107.0.0.0" etag="GXNAk7NJwBa4ZlxnvzR2" version="24.0.1" type="github">
  <diagram name="Page-1" id="cjyQhb4yVqfbpBZrUUNz">
    <mxGraphModel dx="1393" dy="835" grid="1" gridSize="10" guides="1" tooltips="1" connect="1" arrows="1" fold="1" page="1" pageScale="1" pageWidth="850" pageHeight="1100" math="0" shadow="0">
      <root>
        <mxCell id="0" />
        <mxCell id="1" parent="0" />
        <mxCell id="plB1G2_pi3NMGVseFFdb-8" value="" style="edgeStyle=orthogonalEdgeStyle;rounded=0;orthogonalLoop=1;jettySize=auto;html=1;" edge="1" parent="1" source="plB1G2_pi3NMGVseFFdb-1" target="plB1G2_pi3NMGVseFFdb-2">
          <mxGeometry relative="1" as="geometry" />
        </mxCell>
        <mxCell id="plB1G2_pi3NMGVseFFdb-1" value="Inicio" style="ellipse;whiteSpace=wrap;html=1;" vertex="1" parent="1">
          <mxGeometry x="365" y="90" width="120" height="80" as="geometry" />
        </mxCell>
        <mxCell id="plB1G2_pi3NMGVseFFdb-10" value="" style="edgeStyle=orthogonalEdgeStyle;rounded=0;orthogonalLoop=1;jettySize=auto;html=1;" edge="1" parent="1" source="plB1G2_pi3NMGVseFFdb-2" target="plB1G2_pi3NMGVseFFdb-9">
          <mxGeometry relative="1" as="geometry" />
        </mxCell>
        <mxCell id="plB1G2_pi3NMGVseFFdb-2" value="Ler SEXO&lt;div&gt;Ler IDADE&lt;/div&gt;" style="shape=card;whiteSpace=wrap;html=1;" vertex="1" parent="1">
          <mxGeometry x="360" y="220" width="130" height="60" as="geometry" />
        </mxCell>
        <mxCell id="plB1G2_pi3NMGVseFFdb-15" value="" style="edgeStyle=orthogonalEdgeStyle;rounded=0;orthogonalLoop=1;jettySize=auto;html=1;" edge="1" parent="1" source="plB1G2_pi3NMGVseFFdb-9" target="plB1G2_pi3NMGVseFFdb-14">
          <mxGeometry relative="1" as="geometry" />
        </mxCell>
        <mxCell id="plB1G2_pi3NMGVseFFdb-9" value="IDADE &amp;lt; 25" style="rhombus;whiteSpace=wrap;html=1;" vertex="1" parent="1">
          <mxGeometry x="373" y="340" width="105" height="100" as="geometry" />
        </mxCell>
        <mxCell id="plB1G2_pi3NMGVseFFdb-11" value="Imprimir: NÃO ACEITA" style="shape=display;whiteSpace=wrap;html=1;" vertex="1" parent="1">
          <mxGeometry x="170" y="425" width="130" height="60" as="geometry" />
        </mxCell>
        <mxCell id="plB1G2_pi3NMGVseFFdb-13" value="Não" style="text;html=1;align=center;verticalAlign=middle;resizable=0;points=[];autosize=1;strokeColor=none;fillColor=none;" vertex="1" parent="1">
          <mxGeometry x="325" y="358" width="50" height="30" as="geometry" />
        </mxCell>
        <mxCell id="plB1G2_pi3NMGVseFFdb-21" value="" style="edgeStyle=orthogonalEdgeStyle;rounded=0;orthogonalLoop=1;jettySize=auto;html=1;" edge="1" parent="1" source="plB1G2_pi3NMGVseFFdb-14" target="plB1G2_pi3NMGVseFFdb-20">
          <mxGeometry relative="1" as="geometry" />
        </mxCell>
        <mxCell id="plB1G2_pi3NMGVseFFdb-14" value="SEXO = &quot;feminino&quot;" style="rhombus;whiteSpace=wrap;html=1;" vertex="1" parent="1">
          <mxGeometry x="373" y="480" width="105" height="100" as="geometry" />
        </mxCell>
        <mxCell id="plB1G2_pi3NMGVseFFdb-16" value="Sim" style="text;html=1;align=center;verticalAlign=middle;resizable=0;points=[];autosize=1;strokeColor=none;fillColor=none;" vertex="1" parent="1">
          <mxGeometry x="385" y="440" width="40" height="30" as="geometry" />
        </mxCell>
        <mxCell id="plB1G2_pi3NMGVseFFdb-17" style="edgeStyle=orthogonalEdgeStyle;rounded=0;orthogonalLoop=1;jettySize=auto;html=1;exitX=0;exitY=0.5;exitDx=0;exitDy=0;entryX=0;entryY=0;entryDx=66.25;entryDy=0;entryPerimeter=0;" edge="1" parent="1" source="plB1G2_pi3NMGVseFFdb-9" target="plB1G2_pi3NMGVseFFdb-11">
          <mxGeometry relative="1" as="geometry" />
        </mxCell>
        <mxCell id="plB1G2_pi3NMGVseFFdb-18" style="edgeStyle=orthogonalEdgeStyle;rounded=0;orthogonalLoop=1;jettySize=auto;html=1;exitX=0;exitY=0.5;exitDx=0;exitDy=0;entryX=0;entryY=0;entryDx=66.25;entryDy=60;entryPerimeter=0;" edge="1" parent="1" source="plB1G2_pi3NMGVseFFdb-14" target="plB1G2_pi3NMGVseFFdb-11">
          <mxGeometry relative="1" as="geometry" />
        </mxCell>
        <mxCell id="plB1G2_pi3NMGVseFFdb-19" value="Não" style="text;html=1;align=center;verticalAlign=middle;resizable=0;points=[];autosize=1;strokeColor=none;fillColor=none;" vertex="1" parent="1">
          <mxGeometry x="323" y="498" width="50" height="30" as="geometry" />
        </mxCell>
        <mxCell id="plB1G2_pi3NMGVseFFdb-23" value="" style="edgeStyle=orthogonalEdgeStyle;rounded=0;orthogonalLoop=1;jettySize=auto;html=1;" edge="1" parent="1" source="plB1G2_pi3NMGVseFFdb-20" target="plB1G2_pi3NMGVseFFdb-22">
          <mxGeometry relative="1" as="geometry" />
        </mxCell>
        <mxCell id="plB1G2_pi3NMGVseFFdb-20" value="Imprimir: ACEITA" style="shape=display;whiteSpace=wrap;html=1;" vertex="1" parent="1">
          <mxGeometry x="360" y="630" width="130" height="60" as="geometry" />
        </mxCell>
        <mxCell id="plB1G2_pi3NMGVseFFdb-22" value="Fim" style="ellipse;whiteSpace=wrap;html=1;" vertex="1" parent="1">
          <mxGeometry x="365" y="730" width="120" height="80" as="geometry" />
        </mxCell>
        <mxCell id="plB1G2_pi3NMGVseFFdb-24" value="Sim" style="text;html=1;align=center;verticalAlign=middle;resizable=0;points=[];autosize=1;strokeColor=none;fillColor=none;" vertex="1" parent="1">
          <mxGeometry x="420" y="580" width="40" height="30" as="geometry" />
        </mxCell>
      </root>
    </mxGraphModel>
  </diagram>
</mxfile>
